<svg xmlns="http://www.w3.org/2000/svg" width="378.007" height="255.028" viewBox="0 0 378.007 255.028">
  <g id="Group_5575" data-name="Group 5575" transform="translate(11331 4840)">
    <g id="Group_5574" data-name="Group 5574">
      <g id="Group_5573" data-name="Group 5573" transform="translate(-10169.351 -5060.495)">
        <path id="Path_1088" data-name="Path 1088" d="M-783.8,412.1c.362-15.012-5.877-26.188-19.222-33.322a31.069,31.069,0,0,1-12.86-13.225c-9.24-17.388-3.116-40.177,14.288-49.229,10.885-5.661,17.01-15.141,17.574-27.362.569-12.34.162-24.728.041-37.093a27.273,27.273,0,0,0-1.621-8.416c-4.9-14.5-17.362-22.946-34.049-22.948q-152.934-.014-305.868,0c-1.5,0-3,.008-4.5.077-14.941.681-28.91,12.777-30.648,27.56-1.663,14.152-.831,28.43-.365,42.655a19.505,19.505,0,0,0,.694,4.048c2.408,9.614,8.13,16.66,16.683,21.542,11.624,6.635,18.2,16.682,18.721,30.019.573,14.607-5.925,25.759-18.574,33.1-10.206,5.919-16.741,14.453-17.515,26.249a328.808,328.808,0,0,0,.046,40.433,19.884,19.884,0,0,0,.639,3.675c3.977,15.822,17,25.624,34.24,25.634q76.654.047,153.309.011,30.551,0,61.1,0c31.861-.012,63.724.123,95.583-.118a32.668,32.668,0,0,0,31.727-28.465C-782.966,435.354-784.078,423.7-783.8,412.1Zm-36.674,44.3c-32.479-.355-64.965-.122-97.448-.122h-10.119c-36.606,0-73.212-.042-109.818.076-3.089.01-4.076-.666-3.881-3.841.275-4.463.615-8.983-.523-13.423-1.25-4.881-4.2-7.269-9.058-7.258-4.833.011-7.819,2.453-9.024,7.314-1.162,4.692-.695,9.454-.52,14.178.093,2.524-.737,3.112-3.156,3.1-20.739-.09-41.478.007-62.217-.078-10.336-.042-15.836-5.752-15.85-16.113-.014-9.745.164-19.492-.059-29.231-.161-7,2.742-11.693,8.779-15.2a55,55,0,0,0,12.44-85.834,52.327,52.327,0,0,0-12.967-10.053c-5.681-3.108-8.352-7.822-8.241-14.375.171-10.116.024-20.237.051-30.356.026-9.481,5.488-15.42,14.914-15.5,21.237-.176,42.477-.024,63.716-.117,2.374-.01,2.571,1.027,2.561,2.915-.025,4.607-.6,9.232.45,13.815,1.206,5.249,4.04,7.788,8.945,7.86,5.134.075,8.061-2.416,9.344-7.825,1.026-4.331.619-8.715.427-13.06-.128-2.9.674-3.73,3.669-3.724q73.836.15,147.673.071,35.418,0,70.837.009c8.526.009,13.818,3.5,15.849,10.362a11.982,11.982,0,0,1,.551,3.3c.04,11.368.106,22.737-.008,34.1-.059,5.972-3.48,9.78-8.483,12.686-14.628,8.5-23.673,21.088-26.9,37.738a54.4,54.4,0,0,0,25.8,57.3c6.987,4.046,10.094,9.322,9.732,17.354a258.747,258.747,0,0,0,.015,26.6C-802.405,449.142-808.536,456.528-820.471,456.4Z" fill="#439552"/>
        <path id="Path_1089" data-name="Path 1089" d="M-865.095,293.3c.137,2.8-1.91,5.243-4.273,7.592q-32.288,32.086-64.534,64.215-21.909,21.8-43.807,43.616c-2.481,2.48-5.154,4.413-8.82,4.132a9.116,9.116,0,0,1-8.3-6.029c-1.552-4-.558-7.614,2.461-10.628q11.4-11.382,22.84-22.726,43.281-43.082,86.547-86.178c3.076-3.067,6.338-5.262,10.954-3.9C-867.81,284.642-865.122,288.142-865.095,293.3Z" fill="#439552"/>
        <path id="Path_1090" data-name="Path 1090" d="M-1041.627,313.068c0,3.871.091,7.744-.02,11.612-.166,5.844-4.1,9.872-9.514,9.914-5.444.042-9.564-3.872-9.7-9.728-.185-8.111-.2-16.235.017-24.345a9.4,9.4,0,0,1,9.87-9.546c5.248.127,9.133,4.089,9.316,9.732C-1041.521,304.823-1041.629,308.947-1041.627,313.068Z" fill="#439552"/>
        <path id="Path_1091" data-name="Path 1091" d="M-1041.625,382.919c0,3.995.074,7.992-.016,11.985-.134,5.9-3.948,9.977-9.324,10.112-5.586.141-9.782-3.874-9.905-9.913-.163-7.987-.175-15.983.01-23.969.135-5.853,4.245-9.766,9.693-9.723,5.423.042,9.355,4.058,9.521,9.9C-1041.537,375.176-1041.626,379.049-1041.625,382.919Z" fill="#439552"/>
        <path id="Path_1092" data-name="Path 1092" d="M-968.526,280.473c-16.49.015-28.782,12.364-28.824,28.956-.043,16.768,12.395,29.437,28.878,29.418,16.334-.02,28.785-12.576,28.848-29.09C-939.56,292.964-951.9,280.457-968.526,280.473Zm-.047,39.089a9.572,9.572,0,0,1-9.753-10.015,9.689,9.689,0,0,1,9.9-9.938,9.594,9.594,0,0,1,9.712,10.083C-958.776,315.526-962.833,319.588-968.573,319.562Z" fill="#439552"/>
        <path id="Path_1093" data-name="Path 1093" d="M-891.839,357.158c-16.375.1-28.762,12.607-28.84,29.122s12.264,29.116,28.629,29.239c16.7.125,29.045-12.188,29.092-29.026C-862.911,369.685-875.344,357.057-891.839,357.158Zm.032,38.943c-5.863-.017-9.966-4.055-9.927-9.768a9.662,9.662,0,0,1,10.03-9.773,9.544,9.544,0,0,1,9.891,9.862C-881.827,392.144-885.931,396.118-891.807,396.1Z" fill="#439552"/>
      </g>
    </g>
  </g>
</svg>
